<?xml version="1.0" encoding="UTF-8" standalone="no"?>
<!-- Created with Inkscape (http://www.inkscape.org/) -->

<svg
   width="55.928837mm"
   height="55.930176mm"
   viewBox="0 0 55.928838 55.930177"
   version="1.1"
   id="svg1"
   xml:space="preserve"
   sodipodi:docname="logo.svg"
   inkscape:export-filename="LOGO 2.svg"
   inkscape:export-xdpi="31.200943"
   inkscape:export-ydpi="31.200943"
   inkscape:version="1.3 (0e150ed6c4, 2023-07-21)"
   xmlns:inkscape="http://www.inkscape.org/namespaces/inkscape"
   xmlns:sodipodi="http://sodipodi.sourceforge.net/DTD/sodipodi-0.dtd"
   xmlns="http://www.w3.org/2000/svg"
   xmlns:svg="http://www.w3.org/2000/svg"><sodipodi:namedview
     id="namedview1"
     pagecolor="#ffffff"
     bordercolor="#666666"
     borderopacity="1.0"
     inkscape:showpageshadow="2"
     inkscape:pageopacity="0.0"
     inkscape:pagecheckerboard="0"
     inkscape:deskcolor="#d1d1d1"
     inkscape:document-units="mm"
     inkscape:zoom="0.92881373"
     inkscape:cx="307.38133"
     inkscape:cy="274.00542"
     inkscape:window-width="1360"
     inkscape:window-height="705"
     inkscape:window-x="-8"
     inkscape:window-y="-8"
     inkscape:window-maximized="1"
     inkscape:current-layer="g599"
     showgrid="true"><inkscape:grid
       id="grid9"
       units="px"
       originx="-9.3701353e-07"
       originy="1.0377589e-06"
       spacingx="0.26458334"
       spacingy="0.26458335"
       empcolor="#0099e5"
       empopacity="0.30196078"
       color="#0099e5"
       opacity="0.14901961"
       empspacing="5"
       dotted="false"
       gridanglex="30"
       gridanglez="30"
       visible="true" /></sodipodi:namedview><defs
     id="defs1" /><g
     id="g13"><g
       id="g589"
       transform="matrix(0.32172368,0,0,0.32172368,39.482691,-25.406376)"
       style="fill:#ffcc55;stroke:#000000;stroke-width:1.5;stroke-dasharray:none"><g
         id="g586"
         transform="matrix(0.43998447,0,0,0.43998447,-68.72643,44.224177)"
         inkscape:transform-center-x="1.994022"
         inkscape:transform-center-y="-1.4502064e-06"><path
           id="path1"
           style="fill:#ffcc55;fill-opacity:1;fill-rule:evenodd;stroke:#000000;stroke-width:1;stroke-dasharray:none;image-rendering:auto"
           d="m 92.434778,82.310736 c -3.474533,0.255972 -6.938293,0.706294 -10.331373,1.509644 -3.063512,0.695491 -6.07488,1.633958 -8.997464,2.785067 -4.185574,1.654412 -8.197678,3.747096 -11.934959,6.255871 -2.624315,1.743769 -5.110938,3.698708 -7.436539,5.82403 -2.83367,2.580352 -5.434823,5.417742 -7.741955,8.477702 -2.305251,3.03243 -4.33523,6.27592 -6.044177,9.67965 -1.994062,3.93527 -3.574166,8.07998 -4.689291,12.34878 -0.808337,3.01085 -1.364483,6.09029 -1.711809,9.18748 -0.385517,3.45328 -0.4561,6.93344 -0.288718,10.40286 0.228134,3.66931 0.736078,7.32189 1.580929,10.90163 0.862331,3.64136 2.03321,7.21213 3.528421,10.64399 1.538964,3.55755 3.409261,6.9713 5.573074,10.18764 2.11295,3.12937 4.504964,6.06942 7.141649,8.7733 2.591868,2.65227 5.409587,5.0899 8.433636,7.23909 3.159813,2.2841 6.550718,4.24308 10.082536,5.89363 3.480912,1.63272 7.119013,2.92369 10.839329,3.89351 3.567678,0.91791 7.215758,1.5361 10.890711,1.81076 3.16417,0.26084 6.35218,0.25677 9.517952,0.0251 3.73339,-0.27138 7.44005,-0.88372 11.06632,-1.80777 3.36445,-0.86869 6.65166,-2.01477 9.83404,-3.40911 3.43738,-1.54066 6.74581,-3.36452 9.86751,-5.47451 3.10307,-2.11084 6.01886,-4.49434 8.70465,-7.11662 2.74684,-2.68772 5.24136,-5.63121 7.46279,-8.76767 2.18348,-3.10896 4.08457,-6.41343 5.68466,-9.85978 1.60043,-3.45941 2.87596,-7.06604 3.83133,-10.75624 0.91899,-3.60235 1.53272,-7.2841 1.80346,-10.99315 0.45908,-5.91339 0.0716,-11.78812 -1.13346,-17.57871 -1.89467,-9.11648 -5.88182,-17.87586 -11.52979,-25.28529 -7.10052,-9.370141 -16.9017,-16.695594 -27.95048,-20.842817 -8.13162,-3.064499 -16.79947,-4.430573 -25.466342,-3.965906 -0.19555,0.006 -0.3911,0.01191 -0.58664,0.01786 z m 3.79101,19.250004 c 3.02052,0.0345 6.034612,0.33173 8.993862,0.94408 3.9022,0.84211 7.70305,2.17955 11.23628,4.04329 3.13234,1.61965 6.0487,3.64953 8.69926,5.97278 2.85543,2.5385 5.39015,5.43511 7.49855,8.62257 1.94222,2.94192 3.53805,6.11637 4.72032,9.43781 1.28942,3.59729 2.08531,7.36293 2.40456,11.1698 0.31296,4.01283 0.0923,8.07039 -0.70116,12.01848 -0.67159,3.46183 -1.79794,6.83255 -3.28086,10.02965 -1.63191,3.45455 -3.69552,6.70387 -6.16059,9.62445 -2.27171,2.69581 -4.87442,5.1146 -7.7253,7.1883 -3.08941,2.24829 -6.47714,4.07466 -10.03872,5.45479 -3.76417,1.42615 -7.71835,2.36724 -11.73195,2.71151 -3.543252,0.33592 -7.127852,0.19725 -10.644545,-0.33779 -3.77521,-0.59368 -7.46921,-1.67759 -10.964719,-3.22248 -3.217807,-1.43711 -6.276656,-3.24541 -9.058932,-5.41105 -2.999297,-2.31315 -5.678075,-5.02969 -7.984739,-8.03246 -2.124836,-2.81201 -3.940063,-5.86636 -5.333123,-9.10518 -1.525271,-3.46885 -2.551038,-7.14452 -3.139622,-10.8853 -0.571003,-3.95077 -0.65073,-7.97771 -0.137451,-11.93987 0.421637,-3.50133 1.308726,-6.94262 2.556656,-10.23887 1.380348,-3.5618 3.209858,-6.94806 5.458446,-10.03739 2.075386,-2.85004 4.496607,-5.45075 7.193462,-7.72159 2.919237,-2.46599 6.170786,-4.52533 9.624553,-6.15717 3.652189,-1.69129 7.529379,-2.91132 11.507779,-3.54232 2.313863,-0.39921 4.662613,-0.53891 7.007983,-0.58604 z"
           transform="matrix(3.1082574,0,0,3.1082574,-224.27932,-174.98804)" /></g><path
         style="font-weight:bold;font-size:5.64444px;line-height:1.25;font-family:Arial;-inkscape-font-specification:Arial;fill:#000000;stroke:none;stroke-width:0.264583"
         d="m 158.49803,69.13848 -0.12434,-1.610266 q -0.0369,-0.478134 -0.0137,-0.714888 0.0202,-0.239289 0.13241,-0.433158 0.11198,-0.196618 0.31402,-0.336611 0.19929,-0.139782 0.46034,-0.159939 0.28303,-0.02186 0.53123,0.113779 0.24799,0.132886 0.38631,0.384812 0.0787,-0.376493 0.32176,-0.594286 0.24302,-0.217794 0.59201,-0.244742 0.27479,-0.02122 0.54581,0.08777 0.26806,0.106458 0.44188,0.316943 0.17086,0.207949 0.23162,0.529442 0.0377,0.201647 0.10323,0.978877 l 0.10588,1.371199 z m 0.60768,-0.86515 0.93154,-0.07193 -0.0412,-0.533091 q -0.0367,-0.475386 -0.0593,-0.589736 -0.0409,-0.206931 -0.16815,-0.315966 -0.13024,-0.111571 -0.32534,-0.09651 -0.18686,0.01443 -0.2942,0.12776 -0.11031,0.110796 -0.11934,0.31605 -0.004,0.121968 0.0399,0.696278 z m 1.60202,-0.123704 1.07718,-0.08318 -0.0581,-0.752923 q -0.0339,-0.439663 -0.0678,-0.555913 -0.047,-0.178815 -0.18209,-0.281718 -0.13806,-0.105439 -0.35239,-0.08889 -0.18137,0.014 -0.30098,0.111697 -0.11961,0.09769 -0.16437,0.26977 -0.045,0.16933 -0.002,0.724405 z m 1.43249,-3.379851 -3.93829,0.902642 -0.66928,-2.920136 0.66623,-0.152698 0.48703,2.124956 0.87309,-0.200108 -0.45317,-1.977203 0.66355,-0.152082 0.45316,1.977203 1.07188,-0.245671 -0.50427,-2.200176 0.66355,-0.152082 z m -0.9144,-3.676352 -3.7481,1.417925 -0.28865,-0.763023 3.11138,-1.177053 -0.71774,-1.897247 0.63671,-0.240871 z m -1.27332,-3.205952 -3.53195,1.893143 -0.3854,-0.719023 2.93196,-1.571543 -0.95829,-1.787841 0.6,-0.3216 z m -3.79788,-5.950324 0.52023,0.718986 -0.53675,0.823808 0.94675,1.308465 0.93904,-0.267822 0.5073,0.701122 -4.19591,1.093522 -0.50569,-0.69889 z m -0.41456,2.153974 -0.88833,1.329936 1.53458,-0.436786 z m -0.27231,-2.78786 -2.43606,2.309628 0.82487,0.870021 -0.49601,0.470269 -2.20913,-2.330056 0.49601,-0.47027 0.82297,0.868021 2.43606,-2.309628 z m -2.79857,-0.08517 q -0.38133,0.485518 -0.7853,0.700919 -0.29904,0.157642 -0.63695,0.204147 -0.34008,0.0448 -0.63653,-0.03733 -0.39568,-0.107506 -0.78366,-0.412224 -0.70227,-0.551556 -0.78059,-1.317474 -0.0805,-0.767621 0.52894,-1.543581 0.60433,-0.769458 1.36483,-0.876572 0.75879,-0.104947 1.45889,0.444908 0.70877,0.556663 0.78833,1.316544 0.0779,0.762048 -0.51796,1.520668 z m -0.67811,-0.497537 q 0.42388,-0.539704 0.39422,-1.015079 -0.0314,-0.473207 -0.41501,-0.77452 -0.38364,-0.301313 -0.84476,-0.218406 -0.465,0.08337 -0.89909,0.636081 -0.42899,0.546207 -0.39949,1.003934 0.0273,0.456026 0.42399,0.767553 0.39665,0.311527 0.8539,0.229086 0.45555,-0.08028 0.88624,-0.628649 z m -1.72549,-3.82686 -1.95727,3.534683 -1.50212,-0.831771 q -0.56661,-0.31375 -0.76878,-0.551716 -0.20592,-0.236889 -0.22539,-0.565858 -0.0195,-0.328968 0.1541,-0.642412 0.2203,-0.397833 0.59836,-0.528727 0.37674,-0.128483 0.87946,0.06168 -0.1567,-0.263192 -0.21673,-0.507513 -0.0625,-0.245656 -0.0897,-0.799476 l -0.0498,-0.928561 0.85353,0.472628 0.0901,1.054856 q 0.0466,0.564501 0.0891,0.726664 0.0412,0.164574 0.13315,0.265902 0.0906,0.103739 0.33656,0.23992 l 0.14466,0.08011 0.81709,-1.475597 z m -1.84319,1.644605 -0.52803,-0.292388 q -0.51357,-0.284378 -0.66539,-0.311738 -0.15182,-0.02736 -0.2829,0.03867 -0.13108,0.06604 -0.21919,0.225169 -0.0988,0.178422 -0.0624,0.340326 0.0326,0.16298 0.1902,0.288041 0.0801,0.06012 0.51412,0.300438 l 0.55697,0.30841 z"
         id="text590"
         transform="matrix(-1.6210727,2.6520533,-2.6520533,-1.6210727,368.57624,-84.540721)"
         aria-label="BELLATOR" /><path
         style="font-weight:bold;font-size:7.00148px;line-height:2.05;fill:#000000;stroke:none;stroke-width:82.0971"
         d="m 140.5031,212.0309 q -0.70242,-0.26885 -0.91451,-1.03455 -0.21012,-0.76128 0.18092,-1.78298 0.22608,-0.59067 0.49689,-0.99218 0.27278,-0.39709 0.57906,-0.71913 l 1.13984,0.43627 -0.0513,0.13409 q -0.44873,0.26386 -0.79121,0.67088 -0.34369,0.41021 -0.50988,0.84444 -0.0428,0.11175 -0.0933,0.30107 -0.0505,0.18932 -0.0498,0.32137 0.004,0.16248 0.0557,0.28488 0.0508,0.12558 0.21998,0.19035 0.15645,0.0599 0.31953,-0.0314 0.16504,-0.0869 0.32347,-0.31912 0.1665,-0.24375 0.33565,-0.52311 0.17112,-0.27493 0.35753,-0.50375 0.4245,-0.52571 0.85798,-0.66362 0.43546,-0.1335 0.93034,0.0559 0.66411,0.25418 0.85507,1.00813 0.19294,0.75837 -0.16511,1.69387 -0.17964,0.46934 -0.44698,0.89048 -0.26537,0.42555 -0.53097,0.70824 l -1.09514,-0.41915 0.0501,-0.1309 q 0.33987,-0.19937 0.65321,-0.55898 0.31531,-0.35518 0.4815,-0.78941 0.0587,-0.15325 0.095,-0.31506 0.0383,-0.1574 0.0346,-0.31988 -2.3e-4,-0.14285 -0.065,-0.27013 -0.0616,-0.12606 -0.18609,-0.17372 -0.18838,-0.0721 -0.34554,0.0325 -0.15397,0.1058 -0.38973,0.47313 -0.15449,0.24104 -0.29722,0.46095 -0.14396,0.2231 -0.33968,0.46666 -0.38776,0.47754 -0.79645,0.61762 -0.40671,0.1445 -0.89841,-0.0437 z m 5.27515,1.33815 -0.86251,-1.50515 0.30673,-0.8014 1.64704,-0.54464 -0.32261,0.8429 -0.95084,0.31327 0.49991,0.86488 z m -9.70063,2.87793 0.72365,-1.1482 1.0583,0.25077 1.0062,-1.59649 -0.6828,-0.84656 0.70543,-1.11928 3.30393,4.30488 -0.80569,1.27835 z m 2.74105,-0.66877 1.878,0.44411 -1.21085,-1.50266 z m -6.43238,4.49067 0.91951,-0.93696 1.60063,1.57084 1.35772,-1.38348 -1.60063,-1.57083 0.91951,-0.93695 3.63313,3.5655 -0.91951,0.93695 -1.32979,-1.30503 -1.35772,1.38347 1.3298,1.30504 -0.91952,0.93695 z m -3.80615,5.65125 q -0.65819,-1.02372 -0.45983,-2.00476 0.20022,-0.97818 1.23544,-1.64376 1.03235,-0.66374 2.00539,-0.43991 0.97488,0.22672 1.63308,1.25044 0.66374,1.03235 0.46167,2.00764 -0.20021,0.97817 -1.23256,1.64191 -1.02947,0.66189 -2.00539,0.4399 -0.97406,-0.21911 -1.6378,-1.25146 z m 0.76667,-2.02517 q -0.0353,0.29907 0.0571,0.61355 0.0943,0.31735 0.32541,0.6768 0.24775,0.38534 0.51069,0.59833 0.26293,0.21299 0.51395,0.28734 0.25758,0.0782 0.50017,0.032 0.23971,-0.0444 0.44675,-0.1775 0.20992,-0.13497 0.34877,-0.32991 0.13597,-0.19309 0.18032,-0.46547 0.0403,-0.25347 -0.0508,-0.59732 -0.092,-0.33913 -0.3324,-0.71296 -0.24589,-0.38246 -0.50595,-0.5973 -0.26109,-0.21012 -0.51396,-0.28733 -0.25286,-0.0772 -0.49729,-0.0339 -0.24444,0.0434 -0.45723,0.18017 -0.2128,0.13682 -0.3537,0.34121 -0.13905,0.20727 -0.1719,0.47225 z m -5.62154,6.66897 -0.0437,-5.41817 1.37696,-0.51478 3.52137,4.11807 -1.29049,0.48245 -2.40503,-2.91855 0.0994,3.7805 z m -6.28378,-2.40881 q -0.12176,-0.74219 0.43272,-1.31124 0.55166,-0.56513 1.63121,-0.74225 0.62411,-0.10239 1.10738,-0.0708 0.48044,0.0355 0.91295,0.13776 l 0.19759,1.20437 -0.14169,0.0233 q -0.45404,-0.25463 -0.97818,-0.34532 -0.52752,-0.0901 -0.98633,-0.0149 -0.11807,0.0194 -0.30705,0.0712 -0.18897,0.0518 -0.30267,0.11894 -0.13848,0.0851 -0.21799,0.19166 -0.0829,0.10714 -0.0536,0.28594 0.0271,0.16531 0.18818,0.26014 0.15825,0.0987 0.43865,0.11857 0.29445,0.021 0.62098,0.0263 0.3237,0.009 0.61528,0.055 0.668,0.10173 1.00557,0.40665 0.33475,0.30884 0.42054,0.83175 0.11512,0.7017 -0.43986,1.24659 -0.5578,0.54882 -1.54626,0.71099 -0.49592,0.0814 -0.9944,0.0627 -0.50129,-0.0148 -0.87932,-0.10171 l -0.18984,-1.15714 0.13832,-0.0227 q 0.34347,0.19308 0.81198,0.28251 0.46568,0.0934 0.92449,0.0181 0.16194,-0.0266 0.31999,-0.0768 0.15524,-0.0462 0.29372,-0.13133 0.12326,-0.0722 0.20057,-0.19227 0.0778,-0.11671 0.0563,-0.24828 -0.0327,-0.19904 -0.20218,-0.28209 -0.16897,-0.0797 -0.60506,-0.0982 -0.28604,-0.012 -0.54792,-0.0244 -0.26525,-0.0119 -0.57425,-0.0582 -0.60788,-0.0943 -0.93482,-0.37668 -0.32977,-0.27848 -0.41501,-0.79802 z m -5.91966,-1.69755 1.6093,0.0539 1.45221,2.08735 0.31999,-0.36212 0.0558,-1.66397 1.31204,0.044 -0.17052,5.08757 -1.31204,-0.044 0.0772,-2.30291 -1.89491,2.24199 -1.52046,-0.051 2.06746,-2.28751 z m -3.32886,-0.77136 2.91694,0.61513 -0.18623,0.88311 -0.81621,-0.17212 -0.67792,3.21466 0.81621,0.17212 -0.18623,0.88312 -2.91694,-0.61514 0.18623,-0.88311 0.81621,0.17213 0.67791,-3.21466 -0.8162,-0.17213 z m -7.53093,-3.25337 1.43366,0.73306 0.4269,2.50674 0.44359,-0.1917 0.75797,-1.48236 1.16884,0.59766 -2.31748,4.5323 -1.16884,-0.59766 1.04901,-2.05156 -2.668343,1.22355 -1.354516,-0.6926 2.843889,-1.19139 z m -3.402275,-2.68953 2.902645,2.24853 -3.117369,4.02424 -1.037816,-0.80394 2.51441,-3.24588 -1.864826,-1.44458 z m -4.915527,-2.67974 q 0.709463,-0.62207 1.465977,-0.52154 0.756515,0.10053 1.493528,0.94109 0.737012,0.84056 0.737795,1.60372 -0.0015,0.7606 -0.708364,1.38041 l -2.444562,2.14342 -0.86999,-0.99222 2.388011,-2.09383 q 0.39843,-0.34935 0.447288,-0.68773 0.04886,-0.33838 -0.280205,-0.71367 -0.324556,-0.37016 -0.660959,-0.37528 -0.338656,-0.008 -0.75251,0.35518 l -2.388011,2.09384 -0.86999,-0.99222 z m -2.801665,-5.27785 q 0.321959,-0.18074 0.648985,-0.19181 0.325353,-0.0141 0.619478,0.11879 0.344018,0.15189 0.604875,0.42103 0.259185,0.26616 0.530286,0.74909 l 1.087751,1.93772 -4.438862,2.49179 -0.967262,-1.72308 q -0.301223,-0.5366 -0.404347,-0.80411 -0.104798,-0.2705 -0.119797,-0.58356 -0.01406,-0.32535 0.134952,-0.56974 0.144354,-0.24569 0.421597,-0.40133 0.321959,-0.18073 0.664778,-0.1497 0.339837,0.0327 0.651008,0.26575 l 0.02385,-0.0134 q -0.157874,-0.48377 -0.02884,-0.88945 0.127363,-0.40866 0.571547,-0.658 z m -1.001091,2.49086 q -0.110301,0.0619 -0.188806,0.18047 -0.08018,0.11558 -0.05519,0.28582 0.02259,0.15198 0.125035,0.34146 0.09779,0.18818 0.286894,0.52504 l 0.06024,0.10732 0.939048,-0.52714 -0.100408,-0.17887 q -0.152285,-0.27128 -0.26833,-0.45705 -0.116045,-0.18577 -0.228642,-0.26762 -0.155586,-0.11653 -0.289681,-0.10398 -0.137076,0.0142 -0.280169,0.0945 z m 1.649243,-1.29434 q -0.211658,0.11881 -0.278083,0.26587 -0.07108,0.14576 -0.01727,0.37431 0.03655,0.1559 0.165774,0.39308 0.129222,0.23718 0.27314,0.49356 l 0.140571,0.25041 1.105989,-0.62085 -0.04686,-0.0835 q -0.271101,-0.48293 -0.391224,-0.68994 -0.120124,-0.207 -0.293386,-0.34105 -0.174935,-0.13703 -0.333977,-0.134 -0.163696,0.002 -0.324675,0.0921 z"
         id="text588"
         transform="matrix(-2.3481223,-0.07121158,0.07121158,-2.3481223,218.19345,638.78923)"
         aria-label="   ŠAHOVSKI KLUB      " /></g><g
       id="g12"
       transform="translate(-65.857532,0.93369923)"
       inkscape:label="g12"><g
         id="g11"
         style="fill:#ffcc55;fill-opacity:1"
         transform="translate(-4.0285513,-7.956388)"><path
           style="fill:#ffcc55;fill-opacity:1;stroke:#000000;stroke-width:0.665;stroke-linecap:butt;stroke-linejoin:miter;stroke-dasharray:none;stroke-opacity:1"
           d="m 89.981694,44.950612 h 15.819946 c 0,0 0.61633,-3.248066 -0.80571,-3.310468 -1.42204,-0.0624 -12.854474,-0.09513 -14.158169,-3e-6 -1.303694,0.09513 -0.856067,3.310468 -0.856067,3.310468 z"
           id="path9"
           sodipodi:nodetypes="cczzcc" /><path
           style="fill:#ffcc55;fill-opacity:1;stroke:#000000;stroke-width:0.665;stroke-linecap:butt;stroke-linejoin:miter;stroke-dasharray:none;stroke-opacity:1"
           d="M 92.606313,41.594787 V 30.465915 h 10.625307 v 11.078516 z"
           id="path10" /><path
           style="fill:#ffcc55;fill-opacity:1;stroke:#000000;stroke-width:0.665;stroke-linecap:butt;stroke-linejoin:miter;stroke-dasharray:none;stroke-opacity:1"
           d="m 92.80774,30.667344 c 0,0 -2.164044,-0.12621 -2.668914,-0.201428 -0.50487,-0.07522 -0.348401,-2.563488 -0.352761,-2.716218 l 0.151333,-2.671969 h 2.668916 0.402853 v 2.668916 h 2.9207 v -2.618559 h 4.078903 V 27.797 h 2.76963 v -2.769628 l 2.76963,0.05036 c 0.39093,-0.166506 0.43056,4.911626 -0.0503,5.237116 -0.48088,0.32549 -10.112209,0.505922 -12.68994,0.352499 z"
           id="path11"
           sodipodi:nodetypes="czcccccccccccczcc" /></g></g></g></svg>
